<svg width="36" height="35" viewBox="0 0 36 35" fill="none" xmlns="http://www.w3.org/2000/svg">
<path d="M0.379945 26.9849C0.930335 31.5459 6.46812 34.985 13.2614 34.985C19.3688 34.985 24.5569 32.1874 25.8796 28.1815L25.8808 28.1795C26.0878 27.5611 26.1946 26.9145 26.1975 26.263C26.1943 26.0667 26.1805 25.8709 26.1561 25.6763L26.1492 25.6141C25.9086 23.8877 25.047 22.3061 23.7229 21.1614C25.2305 21.82 26.855 22.1736 28.5018 22.2024C29.869 22.2278 31.2185 21.8915 32.4114 21.2283L32.412 21.2275C32.8699 20.9693 33.292 20.653 33.6672 20.2862C33.9495 20.0009 34.2015 19.688 34.4203 19.3523L34.4209 19.3515C36.901 15.6474 35.3141 9.42234 30.7292 4.87184C26.4837 0.657892 20.6468 -1.05624 16.8489 0.796676C16.2382 1.08992 15.6803 1.4809 15.1977 1.95397C15.0217 2.13293 14.8575 2.32272 14.7056 2.52249C11.8804 6.13343 13.3878 12.6554 18.1377 17.37C18.6071 17.8346 19.101 18.2743 19.6166 18.6875C17.5873 17.9212 15.4329 17.5325 13.2614 17.541C7.19623 17.541 1.8778 20.4327 0.615375 24.4167C0.424734 25.0137 0.326829 25.6364 0.325394 26.263C0.328839 26.5044 0.347214 26.7455 0.379945 26.9849ZM13.2614 33.8177C7.54162 33.8177 2.65931 31.1222 1.68744 27.5608C1.7107 27.5631 1.73453 27.5656 1.75721 27.5679C1.96738 27.5916 2.16749 27.6175 2.3544 27.6472C2.38168 27.6514 2.40694 27.6563 2.43393 27.6608C2.60849 27.6896 2.77502 27.7207 2.93551 27.7537C2.96221 27.7591 2.99006 27.7643 3.01677 27.77C3.18846 27.8065 3.35412 27.8446 3.51691 27.8843C3.55223 27.8928 3.58725 27.9016 3.62199 27.9102C3.77876 27.9492 3.9338 27.9886 4.09027 28.029C5.60621 28.4559 7.17728 28.6585 8.75266 28.63C10.3263 28.6588 11.8957 28.4556 13.4093 28.0276C14.8259 27.6238 16.2956 27.4334 17.7691 27.4628C19.2431 27.4334 20.7134 27.6238 22.1306 28.0273C22.2778 28.0652 22.4271 28.1034 22.5787 28.1413C22.6138 28.1501 22.6488 28.1587 22.6841 28.1675C22.8449 28.2071 23.01 28.2459 23.1817 28.2832C23.2026 28.2878 23.225 28.2921 23.2463 28.2966C23.405 28.3302 23.5707 28.3624 23.7435 28.3929C23.7743 28.3983 23.8036 28.404 23.8346 28.4092C24.022 28.4411 24.2201 28.4699 24.4295 28.4961C24.4481 28.4987 24.4636 28.5018 24.4826 28.5041C22.9629 31.6217 18.4082 33.8177 13.2614 33.8177ZM29.8978 5.69741C33.7499 9.52123 35.3626 14.7531 33.8208 18.0329C33.805 18.0147 33.789 17.9964 33.7737 17.9782C33.6178 17.7961 33.4734 17.6203 33.3448 17.4533C33.3333 17.4384 33.3236 17.4245 33.3124 17.4099C33.1898 17.2492 33.0778 17.0942 32.973 16.9432C32.9561 16.9186 32.9383 16.8936 32.9216 16.8693C32.8148 16.7129 32.7149 16.5599 32.6187 16.4083C32.6003 16.3792 32.5822 16.3504 32.5639 16.3213C32.4711 16.1737 32.3804 16.0267 32.2894 15.8782C31.5018 14.5246 30.5168 13.2943 29.3666 12.2271C28.2578 11.1194 26.989 10.1812 25.6026 9.44372C24.3031 8.75493 23.1153 7.87691 22.0786 6.83846C21.0011 5.84161 20.08 4.69002 19.3462 3.42245C19.2715 3.30019 19.1954 3.17651 19.1179 3.05198L19.0585 2.95708C18.9752 2.82428 18.8894 2.68977 18.7975 2.55156C18.7874 2.53617 18.7763 2.52021 18.7659 2.50482C18.6829 2.38057 18.5945 2.25319 18.5006 2.12239C18.4788 2.09218 18.4578 2.06226 18.4354 2.03148C18.3307 1.88785 18.2187 1.73995 18.0969 1.58663C18.0889 1.57609 18.0823 1.56668 18.074 1.55642C21.434 0.434471 26.2606 2.08705 29.8978 5.69741ZM16.0292 2.77926C16.3117 2.5014 16.6278 2.25917 16.97 2.05855C16.9801 2.07024 16.9884 2.08135 16.9982 2.09303C17.128 2.24977 17.246 2.39967 17.3559 2.54501C17.3737 2.56866 17.393 2.59317 17.4105 2.61654C17.5204 2.76472 17.6215 2.90807 17.7171 3.04827C17.736 3.0762 17.755 3.10384 17.7734 3.13149C17.8667 3.27056 17.956 3.40763 18.0412 3.54328C18.0568 3.56779 18.072 3.59229 18.0872 3.6168C18.1727 3.75388 18.2566 3.89009 18.341 4.02831C19.1271 5.38052 20.1107 6.60991 21.2598 7.67629C22.3686 8.78371 23.6373 9.72185 25.0238 10.4597C26.3232 11.1482 27.511 12.0262 28.5478 13.0649C29.6267 14.0629 30.5492 15.2156 31.2848 16.4846C31.3454 16.5832 31.4062 16.6824 31.468 16.7824C31.4889 16.8161 31.5107 16.8505 31.532 16.8844C31.5753 16.9537 31.6187 17.0229 31.6635 17.0931C31.6899 17.1344 31.7177 17.1763 31.7447 17.2179C31.7869 17.2831 31.8297 17.3484 31.8745 17.4151C31.9044 17.4595 31.9357 17.5051 31.967 17.5504C32.0115 17.6154 32.0574 17.6812 32.1048 17.7479C32.1392 17.7961 32.1748 17.8451 32.2107 17.8944C32.2595 17.9608 32.3098 18.0283 32.362 18.0967C32.4014 18.1483 32.4416 18.2008 32.4829 18.2535C32.5372 18.3227 32.5946 18.3937 32.6529 18.4652C32.6974 18.5199 32.7419 18.5746 32.7892 18.6308C32.8507 18.7043 32.9167 18.7801 32.983 18.8562C33.0341 18.9146 33.0838 18.9725 33.1375 19.0323C33.1507 19.0471 33.1619 19.0608 33.1754 19.0756C33.0703 19.2107 32.9569 19.3395 32.8358 19.4609C32.6457 19.6479 32.439 19.8177 32.2182 19.9685L32.1978 19.9462C32.1602 19.9038 32.1266 19.8636 32.0907 19.8223C32.0227 19.7439 31.9549 19.6661 31.8923 19.5909C31.8536 19.5441 31.8174 19.4991 31.7803 19.4535C31.7261 19.3863 31.6724 19.3196 31.6219 19.2546C31.5857 19.2081 31.5512 19.1628 31.5168 19.1172C31.47 19.0554 31.4243 18.9941 31.3804 18.9337C31.3479 18.8895 31.3164 18.8457 31.2856 18.8021C31.2426 18.7414 31.2007 18.6812 31.1602 18.6217C31.1323 18.5809 31.1042 18.5402 31.0772 18.4997C31.0361 18.4379 30.996 18.3766 30.9563 18.3156C30.9322 18.2786 30.9078 18.2412 30.8843 18.2042C30.8418 18.1378 30.8004 18.0717 30.7594 18.0058C30.7398 17.9748 30.72 17.9434 30.7008 17.9121C30.6425 17.818 30.5845 17.724 30.5268 17.6297C29.7384 16.276 28.753 15.0455 27.6026 13.978C26.4938 12.8703 25.225 11.9321 23.8386 11.1946C22.5391 10.5061 21.3513 9.62781 20.3146 8.58936C19.2362 7.59165 18.3143 6.43949 17.5793 5.17135C17.4886 5.02345 17.3958 4.87355 17.3011 4.72194C17.281 4.69002 17.2612 4.65811 17.2408 4.6259C17.144 4.47316 17.0412 4.31699 16.9324 4.15683C16.9097 4.12321 16.8865 4.08958 16.8629 4.05567C16.7495 3.8918 16.6275 3.7231 16.4937 3.54727C16.4713 3.5182 16.4472 3.48799 16.4245 3.45864C16.2795 3.27141 16.1242 3.07877 15.9479 2.87415L15.9433 2.86845C15.9718 2.83768 16.0002 2.80804 16.0292 2.77926ZM18.9692 16.5448C14.8939 12.4995 13.3545 7.09693 15.2287 3.84108C15.2428 3.85818 15.2577 3.87556 15.2715 3.89237C15.3978 4.04683 15.5158 4.19616 15.6235 4.34007C15.6439 4.36715 15.6623 4.39336 15.6821 4.42015C15.7791 4.55209 15.8704 4.6809 15.956 4.80658C15.9712 4.82938 15.9875 4.85217 16.0025 4.87469C16.0969 5.01518 16.1859 5.15311 16.2724 5.29018C16.2913 5.32011 16.3097 5.34974 16.3283 5.37938C16.411 5.5119 16.4926 5.64412 16.5744 5.77778C17.3617 7.13028 18.3462 8.36023 19.4957 9.42719C20.6046 10.5346 21.8733 11.4727 23.2598 12.2103C24.5592 12.8991 25.747 13.7771 26.7838 14.8155C27.863 15.8141 28.7861 16.9671 29.5222 18.2361C29.6127 18.3837 29.7051 18.5328 29.7996 18.6838C29.8217 18.7191 29.8435 18.7542 29.8662 18.7895C29.9647 18.9445 30.0683 19.103 30.1794 19.2657C30.2018 19.2985 30.2256 19.3321 30.2486 19.3655C30.3637 19.531 30.4858 19.7009 30.6221 19.879L30.6396 19.9029C30.778 20.0827 30.9348 20.2731 31.1019 20.4695C31.1234 20.4945 31.1392 20.5168 31.1613 20.5424C27.8237 21.9134 22.7424 20.2891 18.9692 16.5448ZM13.2614 18.7083C19.0321 18.7083 23.9241 21.4332 24.8509 25.0316C24.828 25.0291 24.8044 25.0268 24.782 25.0245C24.5684 25.0009 24.3651 24.9746 24.1756 24.9447C24.1504 24.9407 24.1268 24.9362 24.1019 24.9322C23.9276 24.9037 23.7613 24.8726 23.6014 24.8398C23.5696 24.8333 23.5365 24.8273 23.5052 24.8205C23.3367 24.7848 23.1739 24.7472 23.014 24.7085C22.9721 24.6982 22.9299 24.688 22.8882 24.6774C22.7358 24.6395 22.5845 24.6013 22.432 24.562C20.9161 24.1351 19.3447 23.9325 17.7691 23.961C16.1954 23.9322 14.6261 24.1351 13.1124 24.5634C11.6958 24.9669 10.2261 25.1573 8.75266 25.1282C7.27834 25.1573 5.80805 24.9669 4.39059 24.5637C4.24502 24.5261 4.09774 24.4885 3.94844 24.4511C3.90767 24.4409 3.8669 24.4309 3.82556 24.4206C3.6665 24.3816 3.50342 24.3434 3.33345 24.3067C3.30675 24.3007 3.27861 24.2953 3.25133 24.2896C3.09429 24.2565 2.93035 24.2249 2.75951 24.1949C2.72793 24.1895 2.69779 24.1835 2.66563 24.1781C2.477 24.1465 2.27688 24.118 2.06672 24.0918C2.04547 24.0892 2.02767 24.0858 2.00614 24.0832C3.49394 20.9303 8.06445 18.7083 13.2614 18.7083ZM1.6171 25.2149L1.63921 25.2174C1.8666 25.2405 2.07648 25.2685 2.2766 25.2987C2.30502 25.3032 2.33517 25.3069 2.3633 25.3115C2.55624 25.3423 2.73769 25.3759 2.91312 25.4118C2.94843 25.4189 2.98404 25.426 3.01878 25.4337C3.18817 25.4696 3.35211 25.507 3.51261 25.546C3.54964 25.5551 3.58611 25.5643 3.62286 25.5734C3.78048 25.6127 3.93695 25.6526 4.09429 25.6934C5.60851 26.1211 7.17843 26.324 8.75266 26.2955C10.3263 26.3243 11.8957 26.1211 13.4093 25.6931C14.8259 25.2893 16.2956 25.0989 17.7691 25.1282C19.2451 25.0992 20.7171 25.2893 22.1366 25.6919C22.2408 25.7187 22.3456 25.7455 22.4513 25.7723C22.4915 25.7826 22.5325 25.7925 22.573 25.8025C22.6453 25.8207 22.718 25.8387 22.7921 25.8564C22.8351 25.8666 22.8796 25.8769 22.9236 25.8871C22.9968 25.9042 23.0708 25.921 23.1464 25.9376C23.1932 25.9478 23.2408 25.9578 23.2888 25.9678C23.364 25.9837 23.4409 25.9991 23.5193 26.0142C23.5698 26.0239 23.621 26.0336 23.6726 26.043C23.7536 26.0576 23.8371 26.0718 23.9216 26.0855C23.9744 26.094 24.0269 26.1026 24.0812 26.1108C24.1725 26.1248 24.2678 26.1373 24.3643 26.1502C24.4162 26.157 24.4671 26.1641 24.521 26.1704C24.6336 26.1838 24.7516 26.1958 24.8716 26.2075C24.915 26.2114 24.9554 26.2163 24.9999 26.2203L25.0212 26.2226C25.0215 26.2359 25.0215 26.2496 25.0215 26.263C25.0203 26.6375 24.9755 27.0105 24.888 27.3747L24.8641 27.3719C24.6408 27.3488 24.4346 27.3211 24.2377 27.2912C24.2072 27.2864 24.1754 27.2824 24.1455 27.2775C23.9557 27.247 23.7769 27.2137 23.6043 27.1784C23.567 27.171 23.5299 27.1633 23.4932 27.1556C23.3267 27.1199 23.1647 27.0829 23.0065 27.0444C22.9683 27.035 22.9305 27.0253 22.8926 27.0159C22.7369 26.9772 22.5828 26.9378 22.4271 26.8977C20.9129 26.4696 19.3433 26.2667 17.7691 26.2955C16.1954 26.2667 14.6261 26.4696 13.1124 26.8979C11.6958 27.3015 10.2261 27.4918 8.75266 27.4628C7.27691 27.4916 5.80489 27.3015 4.38571 26.8991C4.27919 26.8717 4.1721 26.8441 4.06414 26.8167C4.03227 26.8088 3.99926 26.8008 3.96681 26.7925C3.88901 26.7731 3.81063 26.7537 3.73052 26.7344C3.68631 26.7238 3.64066 26.7136 3.59558 26.703C3.52495 26.6865 3.45375 26.6703 3.38111 26.6543C3.33115 26.6432 3.27976 26.6326 3.22837 26.6218C3.15745 26.607 3.0851 26.5925 3.0116 26.5782C2.95647 26.5674 2.90077 26.5571 2.84393 26.5469C2.76985 26.5335 2.69348 26.5206 2.61625 26.5078C2.55653 26.4981 2.49681 26.4882 2.43479 26.479C2.35526 26.4668 2.272 26.4557 2.18845 26.4448C2.12414 26.4363 2.06069 26.4275 1.99408 26.4195C1.90192 26.4086 1.80487 26.399 1.70783 26.3893C1.64467 26.383 1.58409 26.3759 1.51834 26.3702L1.50341 26.3687C1.50226 26.3334 1.5014 26.2981 1.5014 26.263C1.50197 25.9105 1.54073 25.5591 1.6171 25.2149Z" fill="white"/>
<path d="M7.06387 30.1179C6.82213 29.9939 6.59244 29.8637 6.37481 29.7272C6.10004 29.5565 5.738 29.6389 5.56544 29.911C5.39289 30.1832 5.47472 30.5428 5.74833 30.7149C5.99295 30.868 6.25106 31.0144 6.52296 31.1546C6.8115 31.3028 7.16637 31.1908 7.31567 30.9047C7.46497 30.6183 7.35242 30.2661 7.06387 30.1179Z" fill="white"/>
<path d="M20.9281 29.1678C19.0903 30.6394 16.2959 31.4832 13.2614 31.4832C11.7277 31.4955 10.2017 31.2678 8.73945 30.8084C8.43109 30.7092 8.10005 30.8768 7.99956 31.1829C7.89908 31.4889 8.06732 31.8178 8.37539 31.9181C9.95507 32.4157 11.6039 32.6627 13.2614 32.6505C16.5598 32.6505 19.6232 31.7123 21.6666 30.0763C21.9192 29.8737 21.9589 29.5063 21.755 29.2556C21.5512 29.0045 21.1808 28.9652 20.9281 29.1678Z" fill="white"/>
<path d="M17.1397 9.21289C17.0748 8.98291 17.0197 8.75579 16.9746 8.53179C16.9109 8.21576 16.6011 8.01086 16.2827 8.07412C15.9643 8.13739 15.7579 8.44488 15.8216 8.76092C15.8724 9.01255 15.9344 9.26789 16.0074 9.5275C16.0949 9.83784 16.4194 10.0188 16.732 9.93217C17.0447 9.84525 17.2273 9.52323 17.1397 9.21289Z" fill="white"/>
<path d="M28.6692 19.2919C28.6893 18.9702 28.4427 18.6932 28.1185 18.6735C25.7005 18.5256 22.832 17.0774 20.6324 14.8939C19.525 13.8081 18.6034 12.5503 17.9043 11.1698C17.7596 10.8817 17.4076 10.7643 17.117 10.9071C16.8265 11.0498 16.7073 11.3992 16.8506 11.6879C17.6066 13.182 18.6031 14.5437 19.8009 15.7192C22.231 18.1315 25.3135 19.6715 28.0462 19.8385C28.0585 19.8394 28.0709 19.8397 28.0829 19.8397C28.3933 19.8391 28.65 19.5994 28.6692 19.2919Z" fill="white"/>
</svg>
