<svg width="36" height="35" viewBox="0 0 36 35" fill="none" xmlns="http://www.w3.org/2000/svg">
<g clip-path="url(#clip0_4_135)">
<path d="M0.330247 26.9849C0.880637 31.5459 6.41842 34.985 13.2117 34.985C19.3191 34.985 24.5072 32.1874 25.8299 28.1815L25.8311 28.1795C26.0381 27.5611 26.1449 26.9145 26.1478 26.263C26.1446 26.0667 26.1308 25.8709 26.1064 25.6763L26.0995 25.6141V25.6139C25.8589 23.8875 24.9973 22.3061 23.6732 21.1614C25.1808 21.82 26.8053 22.1736 28.4521 22.2024C29.8193 22.2278 31.1688 21.8915 32.3617 21.2284L32.3623 21.2275C32.8202 20.9693 33.2423 20.653 33.6175 20.2862C33.8998 20.001 34.1518 19.6881 34.3706 19.3524L34.3712 19.3515C36.8513 15.6474 35.2644 9.42236 30.6795 4.87185C26.434 0.657908 20.5971 -1.05623 16.7992 0.796691C16.1885 1.08993 15.6306 1.48092 15.148 1.95398C14.972 2.13295 14.8078 2.32274 14.6559 2.52251L14.6556 2.52279C11.8305 6.13373 13.3381 12.6554 18.088 17.3701C18.5574 17.8346 19.0513 18.2743 19.5669 18.6875C17.5376 17.9212 15.3832 17.5325 13.2117 17.541C7.14653 17.541 1.8281 20.4327 0.565677 24.4167C0.375036 25.0137 0.277131 25.6364 0.275696 26.263C0.279141 26.5044 0.297229 26.7452 0.32996 26.9846L0.330247 26.9849ZM13.2117 33.8178C7.49193 33.8178 2.60962 31.1222 1.63775 27.5608C1.661 27.5631 1.68483 27.5657 1.70751 27.5679C1.91768 27.5916 2.1178 27.6175 2.3047 27.6472C2.33198 27.6514 2.35725 27.6563 2.38423 27.6608C2.5588 27.6896 2.72532 27.7207 2.88582 27.7537C2.91252 27.7592 2.94037 27.7643 2.96707 27.77C3.13876 27.8065 3.30442 27.8447 3.46721 27.8843C3.50253 27.8928 3.53756 27.9017 3.5723 27.9102C3.72906 27.9492 3.8841 27.9886 4.04057 28.029C5.55652 28.4559 7.12758 28.6585 8.70296 28.6301C10.2766 28.6588 11.846 28.4556 13.3596 28.0276C14.7762 27.6238 16.2459 27.4334 17.7194 27.4628C19.1934 27.4334 20.6637 27.6238 22.0809 28.0273C22.2281 28.0652 22.3774 28.1034 22.529 28.1413C22.5641 28.1502 22.5991 28.1587 22.6344 28.1675C22.7952 28.2071 22.9603 28.2459 23.132 28.2832C23.1529 28.2878 23.1753 28.2921 23.1966 28.2966C23.3553 28.3303 23.521 28.3625 23.6938 28.393C23.7246 28.3984 23.7539 28.4041 23.7849 28.4092C23.9723 28.4411 24.1705 28.4699 24.3798 28.4961C24.3984 28.4987 24.4139 28.5018 24.4329 28.5041C22.9132 31.6217 18.3585 33.8178 13.2117 33.8178ZM29.8481 5.69743C33.7002 9.52124 35.3129 14.7531 33.7711 18.0329C33.7553 18.0147 33.7393 17.9964 33.724 17.9782C33.5681 17.7961 33.4237 17.6203 33.2951 17.4533C33.2836 17.4385 33.2739 17.4245 33.2627 17.41C33.1401 17.2492 33.0281 17.0942 32.9233 16.9432C32.9064 16.9187 32.8886 16.8936 32.8719 16.8694C32.7651 16.7129 32.6652 16.5599 32.569 16.4083C32.5506 16.3792 32.5325 16.3504 32.5142 16.3214C32.4214 16.1737 32.3307 16.0267 32.2397 15.8782C31.4521 14.5246 30.4671 13.2943 29.3169 12.2271C28.2081 11.1194 26.9393 10.1812 25.5529 9.44373C24.2534 8.75494 23.0657 7.87693 22.0289 6.83848C20.9514 5.84163 20.0303 4.69004 19.2965 3.42246C19.2218 3.30021 19.1457 3.17653 19.0682 3.05199L19.0088 2.9571C18.9255 2.8243 18.8397 2.68979 18.7478 2.55158C18.7377 2.53619 18.7266 2.52023 18.7162 2.50484C18.6332 2.38059 18.5448 2.25321 18.4509 2.1224C18.4291 2.09219 18.4081 2.06227 18.3858 2.03149C18.281 1.88787 18.169 1.73996 18.0472 1.58665C18.0392 1.5761 18.0326 1.5667 18.0243 1.55644C21.3843 0.434486 26.2109 2.08706 29.8481 5.69743ZM15.9795 2.77927C16.262 2.50142 16.5781 2.25919 16.9203 2.05857C16.9304 2.07025 16.9387 2.08136 16.9485 2.09305C17.0783 2.24979 17.1963 2.39968 17.3062 2.54502C17.324 2.56867 17.3433 2.59318 17.3608 2.61655C17.4707 2.76474 17.5718 2.90808 17.6674 3.04829C17.6864 3.07622 17.7053 3.10386 17.7237 3.1315C17.817 3.27057 17.9063 3.40764 17.9916 3.54329C18.0071 3.5678 18.0223 3.59231 18.0375 3.61682C18.123 3.75389 18.2069 3.89011 18.2913 4.02832C19.0774 5.38054 20.061 6.60992 21.2101 7.67631C22.3189 8.78372 23.5876 9.72187 24.9741 10.4597C26.2735 11.1482 27.4613 12.0262 28.4981 13.0649C29.577 14.0629 30.4995 15.2156 31.2351 16.4846C31.2957 16.5832 31.3565 16.6824 31.4183 16.7824C31.4392 16.8161 31.461 16.8506 31.4823 16.8845C31.5256 16.9537 31.569 17.023 31.6138 17.0931C31.6402 17.1344 31.668 17.1763 31.695 17.2179C31.7372 17.2831 31.78 17.3484 31.8248 17.4151C31.8547 17.4595 31.886 17.5051 31.9173 17.5505C31.9618 17.6154 32.0077 17.6813 32.0551 17.7479C32.0895 17.7961 32.1251 17.8451 32.161 17.8944C32.2098 17.9608 32.2601 18.0284 32.3123 18.0968C32.3517 18.1483 32.3919 18.2008 32.4332 18.2535C32.4875 18.3227 32.5449 18.3937 32.6032 18.4652C32.6477 18.5199 32.6922 18.5747 32.7395 18.6308C32.801 18.7043 32.867 18.7801 32.9333 18.8562C32.9845 18.9146 33.0341 18.9725 33.0878 19.0323C33.101 19.0471 33.1122 19.0608 33.1257 19.0756C33.0206 19.2107 32.9072 19.3395 32.7861 19.4609C32.596 19.6479 32.3893 19.8177 32.1685 19.9685L32.1481 19.9462C32.1105 19.9038 32.0769 19.8636 32.041 19.8223C31.973 19.7439 31.9052 19.6661 31.8426 19.5909C31.8039 19.5441 31.7677 19.4991 31.7306 19.4535C31.6764 19.3863 31.6227 19.3196 31.5722 19.2546C31.536 19.2082 31.5015 19.1628 31.4671 19.1173C31.4203 19.0554 31.3746 18.9941 31.3307 18.9337C31.2983 18.8896 31.2667 18.8457 31.2359 18.8021C31.1929 18.7414 31.151 18.6812 31.1105 18.6217C31.0826 18.5809 31.0545 18.5402 31.0275 18.4997C30.9865 18.4379 30.9463 18.3766 30.9066 18.3156C30.8825 18.2786 30.8581 18.2412 30.8346 18.2042C30.7921 18.1378 30.7507 18.0717 30.7097 18.0058C30.6902 17.9748 30.6703 17.9434 30.6511 17.9121C30.5928 17.818 30.5348 17.724 30.4771 17.6297C29.6887 16.276 28.7033 15.0455 27.5529 13.978C26.4441 12.8703 25.1753 11.9321 23.7889 11.1946C22.4894 10.5061 21.3016 9.62782 20.2649 8.58937C19.1865 7.59167 18.2646 6.43951 17.5296 5.17136C17.4389 5.02346 17.3461 4.87356 17.2514 4.72196C17.2313 4.69004 17.2115 4.65812 17.1911 4.62592C17.0943 4.47317 16.9915 4.317 16.8827 4.15685C16.86 4.12322 16.8368 4.08959 16.8132 4.05568C16.6998 3.89182 16.5778 3.72311 16.444 3.54728C16.4216 3.51822 16.3975 3.48801 16.3748 3.45866C16.2298 3.27143 16.0745 3.07878 15.8982 2.87417L15.8936 2.86847C15.9221 2.83769 15.9505 2.80805 15.9795 2.77927ZM18.9195 16.5448C14.8442 12.4995 13.3048 7.09695 15.179 3.84109C15.1931 3.85819 15.208 3.87558 15.2218 3.89239C15.3481 4.04685 15.4661 4.19617 15.5738 4.34009C15.5942 4.36716 15.6126 4.39338 15.6324 4.42017C15.7294 4.55211 15.8207 4.68092 15.9063 4.80659C15.9215 4.82939 15.9378 4.85219 15.9528 4.8747C16.0472 5.0152 16.1362 5.15313 16.2227 5.2902C16.2416 5.32012 16.26 5.34976 16.2787 5.3794C16.3613 5.51191 16.4429 5.64414 16.5247 5.77779C17.312 7.13029 18.2965 8.36025 19.4461 9.4272C20.5549 10.5346 21.8236 11.4728 23.2101 12.2103C24.5095 12.8991 25.6973 13.7771 26.7341 14.8155C27.8133 15.8141 28.7364 16.9671 29.4725 18.2361C29.563 18.3837 29.6554 18.5328 29.7499 18.6838C29.772 18.7191 29.7938 18.7542 29.8165 18.7895C29.915 18.9446 30.0186 19.103 30.1297 19.2657C30.1521 19.2985 30.1759 19.3321 30.1989 19.3655C30.314 19.531 30.4361 19.7009 30.5724 19.879L30.59 19.9029C30.7283 20.0828 30.8851 20.2731 31.0522 20.4695C31.0737 20.4945 31.0895 20.5168 31.1116 20.5424C27.774 21.9134 22.6927 20.2891 18.9195 16.5448ZM13.2117 18.7083C18.9824 18.7083 23.8744 21.4333 24.8012 25.0317C24.7783 25.0291 24.7547 25.0268 24.7323 25.0245C24.5187 25.0009 24.3154 24.9747 24.1259 24.9447C24.1007 24.9407 24.0771 24.9362 24.0522 24.9322C23.8779 24.9037 23.7116 24.8726 23.5517 24.8399C23.5199 24.8333 23.4868 24.8273 23.4555 24.8205C23.287 24.7849 23.1242 24.7472 22.9643 24.7085C22.9224 24.6982 22.8802 24.688 22.8385 24.6774C22.6861 24.6395 22.5348 24.6013 22.3823 24.562C20.8664 24.1351 19.295 23.9325 17.7194 23.961C16.1457 23.9322 14.5764 24.1351 13.0627 24.5634C11.6461 24.967 10.1764 25.1573 8.70296 25.1283C7.22865 25.1573 5.75835 24.967 4.34089 24.5637C4.19533 24.5261 4.04804 24.4885 3.89874 24.4512C3.85797 24.4409 3.8172 24.4309 3.77586 24.4207C3.6168 24.3816 3.45372 24.3434 3.28375 24.3067C3.25705 24.3007 3.22891 24.2953 3.20164 24.2896C3.04459 24.2565 2.88065 24.2249 2.70982 24.195C2.67823 24.1895 2.64809 24.1836 2.61593 24.1781C2.4273 24.1465 2.22718 24.118 2.01702 24.0918C1.99577 24.0892 1.97797 24.0858 1.95644 24.0833C3.44425 20.9303 8.01475 18.7083 13.2117 18.7083ZM1.56741 25.2149L1.58951 25.2175C1.8169 25.2405 2.02678 25.2685 2.2269 25.2987C2.25532 25.3032 2.28547 25.3069 2.3136 25.3115C2.50654 25.3423 2.688 25.3759 2.86342 25.4118C2.89874 25.4189 2.93434 25.4261 2.96908 25.4338C3.13847 25.4697 3.30241 25.507 3.46291 25.546C3.49994 25.5552 3.53641 25.5643 3.57316 25.5734C3.73078 25.6127 3.88726 25.6526 4.04459 25.6934C5.55881 26.1211 7.12873 26.324 8.70296 26.2955C10.2766 26.3243 11.846 26.1211 13.3596 25.6931C14.7762 25.2893 16.2459 25.0989 17.7194 25.1283C19.1954 25.0992 20.6674 25.2893 22.0869 25.6919C22.1911 25.7187 22.2959 25.7455 22.4016 25.7723C22.4418 25.7826 22.4828 25.7925 22.5233 25.8025C22.5957 25.8208 22.6683 25.8387 22.7424 25.8564C22.7854 25.8666 22.8299 25.8769 22.8739 25.8872C22.9471 25.9043 23.0211 25.9211 23.0967 25.9376C23.1435 25.9479 23.1911 25.9578 23.2391 25.9678C23.3143 25.9838 23.3912 25.9991 23.4696 26.0143C23.5201 26.0239 23.5713 26.0336 23.6229 26.043C23.7039 26.0576 23.7874 26.0718 23.8719 26.0855C23.9247 26.094 23.9772 26.1026 24.0315 26.1109C24.1228 26.1248 24.2181 26.1374 24.3146 26.1502C24.3665 26.157 24.4174 26.1642 24.4713 26.1704C24.5839 26.1838 24.7019 26.1958 24.8219 26.2075C24.8653 26.2115 24.9057 26.2163 24.9502 26.2203L24.9715 26.2226C24.9718 26.236 24.9718 26.2496 24.9718 26.263C24.9706 26.6375 24.9258 27.0105 24.8383 27.3747L24.8144 27.3719C24.5911 27.3488 24.3849 27.3212 24.188 27.2912C24.1575 27.2864 24.1257 27.2824 24.0958 27.2776C23.906 27.2471 23.7272 27.2137 23.5546 27.1784C23.5173 27.171 23.4802 27.1633 23.4435 27.1556C23.277 27.12 23.115 27.0829 22.9568 27.0444C22.9186 27.035 22.8808 27.0253 22.8429 27.0159C22.6872 26.9772 22.5331 26.9379 22.3774 26.8977C20.8632 26.4696 19.2936 26.2667 17.7194 26.2955C16.1457 26.2667 14.5764 26.4696 13.0627 26.898C11.6461 27.3015 10.1764 27.4919 8.70296 27.4628C7.22721 27.4916 5.7552 27.3015 4.33601 26.8991C4.22949 26.8717 4.1224 26.8441 4.01445 26.8167C3.98258 26.8088 3.94956 26.8008 3.91712 26.7925C3.83931 26.7731 3.76093 26.7538 3.68082 26.7344C3.63661 26.7238 3.59096 26.7136 3.54588 26.703C3.47525 26.6865 3.40405 26.6703 3.33141 26.6543C3.28145 26.6432 3.23006 26.6327 3.17867 26.6218C3.10775 26.607 3.0354 26.5925 2.9619 26.5782C2.90677 26.5674 2.85108 26.5571 2.79423 26.5469C2.72015 26.5335 2.64378 26.5207 2.56655 26.5078C2.50683 26.4981 2.44711 26.4882 2.3851 26.479C2.30557 26.4668 2.2223 26.4557 2.13875 26.4449C2.07444 26.4363 2.01099 26.4275 1.94438 26.4195C1.85222 26.4087 1.75518 26.399 1.65813 26.3893C1.59497 26.383 1.53439 26.3759 1.46864 26.3702L1.45371 26.3688C1.45256 26.3334 1.4517 26.2981 1.4517 26.263C1.45227 25.9105 1.49103 25.5591 1.56741 25.2149Z" fill="black"/>
<path d="M7.01418 30.1178C6.77243 29.9939 6.54274 29.8636 6.32511 29.7271C6.05035 29.5564 5.6883 29.6388 5.51575 29.9109C5.3432 30.1831 5.42502 30.5427 5.69864 30.7149C5.94326 30.8679 6.20137 31.0144 6.47326 31.1546C6.76181 31.3028 7.11668 31.1908 7.26597 30.9047C7.41527 30.6183 7.30272 30.266 7.01418 30.1178Z" fill="black"/>
<path d="M20.8784 29.1678C19.0406 30.6394 16.2462 31.4832 13.2117 31.4832C11.678 31.4955 10.152 31.2678 8.68975 30.8084C8.38139 30.7092 8.05035 30.8768 7.94986 31.1828C7.84937 31.4889 8.01762 31.8178 8.32569 31.9181C9.90537 32.4157 11.5542 32.6627 13.2117 32.6505C16.5101 32.6505 19.5735 31.7123 21.6169 30.0763C21.8695 29.8737 21.9092 29.5063 21.7053 29.2556C21.5015 29.0045 21.1311 28.9652 20.8784 29.1678Z" fill="black"/>
<path d="M17.09 9.21292C17.0251 8.98294 16.97 8.75581 16.9249 8.53182C16.8612 8.21578 16.5514 8.01088 16.233 8.07415C15.9146 8.13741 15.7082 8.4449 15.7719 8.76094C15.8227 9.01258 15.8847 9.26792 15.9577 9.52753C16.0452 9.83787 16.3697 10.0188 16.6823 9.9322C16.995 9.84528 17.1776 9.52325 17.09 9.21292Z" fill="black"/>
<path d="M28.6195 19.2919C28.6396 18.9702 28.393 18.6932 28.0688 18.6735C25.6508 18.5256 22.7823 17.0774 20.5827 14.8939C19.4753 13.8081 18.5537 12.5502 17.8546 11.1698C17.7099 10.8817 17.3579 10.7643 17.0673 10.9071C16.7768 11.0498 16.6576 11.3992 16.8009 11.6879C17.5569 13.182 18.5534 14.5436 19.7512 15.7192C22.1813 18.1315 25.2638 19.6715 27.9965 19.8385C28.0088 19.8394 28.0212 19.8397 28.0332 19.8397C28.3436 19.8391 28.6003 19.5994 28.6195 19.2919Z" fill="black"/>
</g>
<defs>
<clipPath id="clip0_4_135">
<rect width="35.2621" height="35" fill="white" transform="translate(0.275696)"/>
</clipPath>
</defs>
</svg>
