<svg width="39" height="38" viewBox="0 0 39 38" fill="none" xmlns="http://www.w3.org/2000/svg">
<g filter="url(#filter0_d_4_68)">
<g clip-path="url(#clip0_4_68)">
<path d="M9.92502 26.5504C8.56092 24.1621 9.48887 20.4168 12.3112 17.6151C15.5166 14.4341 19.948 13.6759 22.2106 15.9214C22.213 15.9242 22.2158 15.9274 22.2192 15.9304C21.7664 17.2383 20.3241 20.0203 16.0017 21.5246C12.0417 22.9031 10.5145 25.0955 9.92502 26.5504ZM20.8784 19.5906C19.8447 20.6175 18.3754 21.6253 16.2941 22.3503C12.0702 23.8203 10.8901 26.2275 10.5607 27.3931C10.5767 27.409 10.5896 27.4255 10.6045 27.4401C12.8669 29.6857 17.2989 28.9274 20.5034 25.7464C23.3551 22.9159 24.2724 19.1225 22.8468 16.7383C22.5037 17.5324 21.9069 18.5697 20.8784 19.5906ZM12.1377 9.24521C16.7008 9.64211 19.1693 7.69641 20.1243 6.69018C20.1227 6.68619 20.1215 6.68168 20.1202 6.67806C18.9909 3.70713 14.6379 2.586 10.3975 4.17405C6.66308 5.57275 4.26257 8.60593 4.51428 11.3398C5.65542 10.2555 7.95708 8.88224 12.1377 9.24521ZM14.4874 14.9334C18.261 13.5206 20.6705 10.4387 20.3612 7.68311C19.719 8.26655 18.7445 8.96808 17.3838 9.47782C16.0158 9.99006 14.2585 10.3081 12.0614 10.1171C7.60272 9.72906 5.52767 11.4401 4.74334 12.3682C4.75131 12.3889 4.7569 12.4091 4.76412 12.4285C5.89365 15.4002 10.2468 16.5218 14.4874 14.9334ZM27.6934 8.73791C30.4312 5.09208 30.0597 1.98481 29.6986 0.649699C29.6944 0.649256 29.6903 0.647703 29.6865 0.646816C26.546 0.039928 23.2981 3.12782 22.4318 7.54314C21.6689 11.4328 23.0088 15.0529 25.4844 16.2767C25.1544 14.7432 25.1865 12.0782 27.6934 8.73791ZM30.6744 0.971332C30.8374 1.82059 30.9268 3.01211 30.6488 4.42863C30.3696 5.85357 29.7185 7.50469 28.401 9.26029C25.7262 12.8223 26.1029 15.4731 26.4866 16.623C26.5085 16.6275 26.529 16.6331 26.5492 16.6375C29.69 17.2444 32.9375 14.157 33.8036 9.74126C34.575 5.81187 33.1988 2.15716 30.6744 0.971332Z" fill="white"/>
</g>
</g>
<defs>
<filter id="filter0_d_4_68" x="0.496246" y="0" width="37.5214" height="37.302" filterUnits="userSpaceOnUse" color-interpolation-filters="sRGB">
<feFlood flood-opacity="0" result="BackgroundImageFix"/>
<feColorMatrix in="SourceAlpha" type="matrix" values="0 0 0 0 0 0 0 0 0 0 0 0 0 0 0 0 0 0 127 0" result="hardAlpha"/>
<feOffset dy="4"/>
<feGaussianBlur stdDeviation="2"/>
<feColorMatrix type="matrix" values="0 0 0 0 0 0 0 0 0 0 0 0 0 0 0 0 0 0 0.25 0"/>
<feBlend mode="normal" in2="BackgroundImageFix" result="effect1_dropShadow_4_68"/>
<feBlend mode="normal" in="SourceGraphic" in2="effect1_dropShadow_4_68" result="shape"/>
</filter>
<clipPath id="clip0_4_68">
<rect width="29.5214" height="29.302" fill="white" transform="translate(4.49625)"/>
</clipPath>
</defs>
</svg>
