<svg width="31" height="30" viewBox="0 0 31 30" fill="none" xmlns="http://www.w3.org/2000/svg">
<g clip-path="url(#clip0_4_86)">
<path d="M5.91003 26.5504C4.54593 24.1621 5.47388 20.4168 8.29624 17.6151C11.5016 14.4341 15.933 13.6759 18.1956 15.9214C18.198 15.9242 18.2008 15.9274 18.2042 15.9304C17.7514 17.2383 16.3091 20.0203 11.9867 21.5245C8.02673 22.9031 6.49949 25.0955 5.91003 26.5504ZM16.8634 19.5906C15.8297 20.6175 14.3604 21.6253 12.2791 22.3503C8.05519 23.8203 6.87508 26.2275 6.54575 27.3931C6.56169 27.4089 6.57458 27.4255 6.58955 27.4401C8.85188 29.6857 13.2839 28.9273 16.4885 25.7464C19.3402 22.9159 20.2575 19.1225 18.8318 16.7383C18.4887 17.5324 17.8919 18.5697 16.8634 19.5906ZM8.12268 9.2452C12.6858 9.6421 15.1543 7.69641 16.1094 6.69018C16.1077 6.68618 16.1065 6.68167 16.1053 6.67805C14.976 3.70713 10.6229 2.58599 6.38254 4.17405C2.64809 5.57274 0.247582 8.60592 0.499291 11.3398C1.64044 10.2555 3.9421 8.88223 8.12268 9.2452ZM10.4724 14.9334C14.246 13.5205 16.6555 10.4387 16.3462 7.6831C15.704 8.26655 14.7295 8.96808 13.3688 9.47781C12.0008 9.99005 10.2435 10.3081 8.0464 10.1171C3.58774 9.72905 1.51268 11.4401 0.728355 12.3682C0.736326 12.3888 0.741913 12.4091 0.749138 12.4285C1.87866 15.4002 6.23184 16.5218 10.4724 14.9334ZM23.6784 8.73791C26.4162 5.09207 26.0447 1.9848 25.6836 0.649692C25.6795 0.649248 25.6754 0.647695 25.6715 0.646808C22.531 0.0399204 19.2831 3.12782 18.4168 7.54313C17.654 11.4328 18.9938 15.0528 21.4694 16.2767C21.1394 14.7432 21.1716 12.0782 23.6784 8.73791ZM26.6594 0.971325C26.8224 1.82058 26.9118 3.0121 26.6338 4.42862C26.3547 5.85356 25.7035 7.50468 24.386 9.26028C21.7113 12.8223 22.0879 15.4731 22.4716 16.623C22.4935 16.6275 22.514 16.6331 22.5342 16.6375C25.675 17.2444 28.9225 14.157 29.7887 9.74125C30.56 5.81186 29.1838 2.15715 26.6594 0.971325Z" fill="black"/>
</g>
<defs>
<clipPath id="clip0_4_86">
<rect width="29.5214" height="29.302" fill="white" transform="translate(0.481262)"/>
</clipPath>
</defs>
</svg>
